# xmcd CD database file
#
# Track frame offsets:
#	150
#	15873
#	28449
#	41424
#	53479
#	68110
#	77019
#	90494
#	103200
#	115716
#	130647
#	145363
#	159658
#	177706
#	193255
#	208345
#	224006
#	236092
#	250507
#	263436
#
# Disc length: 3689 seconds
#
# Revision: 0
# Processed by: cddbd v1.5.2PL0 Copyright (c) Steve Scherf et al.
# Submitted via: CDex 1.70beta2
#
DISCID=1c0e6714
DTITLE=Various Artist - Cafe Jazz 2 - CD 3
DYEAR=2010
DGENRE=Jazz
TTITLE0=Chet Baker - Isn't It Romatic
TTITLE1=Coleman Hawkins and His All Stars - The Way You Look Tonight
TTITLE2=Ella Fitzgerald - Melancholy Me
TTITLE3=Errol Garner - I Never New
TTITLE4=Dave Brubeck Quartet - Just One Of Those Things
TTITLE5=Frank Sinatra - They Can't Take That Away From Me
TTITLE6=Oscar Peterson Quartet - Sleepy Time Gal
TTITLE7=Laurindo Almeida and Bud Shank - Atabaque
TTITLE8=Sarah Vaughan - What A Difference A Day Makes
TTITLE9=Charlie Parker Quartet - Lover Man
TTITLE10=Dexter Gordon - I Can't Escape From You
TTITLE11=Mel Torme - Again
TTITLE12=Ike Quebec - The Day You came Along
TTITLE13=Art Pepper - Thyme Time
TTITLE14=Lena Horne - One For My Baby
TTITLE15=Artie Shaw - Moonglow
TTITLE16=Art Pepper - Pooch McGooch
TTITLE17=Johnny Lercer and Jo Stafford - Candy
TTITLE18=Gerry Mulligan Quartet - Aren't You Glad You're Here
TTITLE19=Peggy Lee - Travellin' Light
EXTD=YEAR: 2010
EXTT0=
EXTT1=
EXTT2=
EXTT3=
EXTT4=
EXTT5=
EXTT6=
EXTT7=
EXTT8=
EXTT9=
EXTT10=
EXTT11=
EXTT12=
EXTT13=
EXTT14=
EXTT15=
EXTT16=
EXTT17=
EXTT18=
EXTT19=
PLAYORDER=
